<?xml version="1.0" standalone="no"?>
<!DOCTYPE svg PUBLIC "-//W3C//DTD SVG 20010904//EN"
 "http://www.w3.org/TR/2001/REC-SVG-20010904/DTD/svg10.dtd">
<svg version="1.0" xmlns="http://www.w3.org/2000/svg"
 width="1140.000000pt" height="912.000000pt" viewBox="0 0 1140.000000 912.000000"
 preserveAspectRatio="xMidYMid meet">
<metadata>
Created by potrace 1.16, written by Peter Selinger 2001-2019
</metadata>
<g transform="translate(0.000000,912.000000) scale(0.100000,-0.100000)"
fill="#000000" stroke="none">
<path d="M4430 6702 c-91 -52 -223 -128 -295 -169 -71 -42 -131 -76 -133 -78
-1 -1 -14 -47 -27 -102 -29 -121 -80 -251 -138 -353 l-43 -75 -139 0 -140 0
-52 105 c-77 158 -97 237 -99 405 l-3 140 -53 12 c-319 75 -553 106 -927 124
-601 30 -1247 -50 -1784 -221 -99 -31 -253 -88 -317 -116 -97 -43 -219 -101
-247 -117 l-33 -19 0 -3038 0 -3038 67 -39 c38 -21 109 -57 160 -81 l91 -42
1722 0 1722 0 152 75 c134 67 318 172 402 230 34 23 145 102 159 113 63 48
165 137 165 143 0 5 4 9 9 9 9 0 191 176 191 185 0 3 14 19 30 35 17 16 30 33
30 39 0 5 7 11 15 15 8 3 15 12 15 21 0 8 7 15 15 15 9 0 141 -74 293 -164
152 -90 301 -176 330 -190 175 -88 439 -88 614 0 69 35 5094 2901 5130 2926
16 11 40 40 55 66 27 46 28 50 28 207 0 154 -1 162 -27 210 -47 91 -24 76
-748 495 -135 78 -344 200 -465 270 -121 70 -256 148 -300 173 -44 25 -314
180 -600 346 l-520 301 -5 -44 c-7 -53 -22 -73 -61 -81 -25 -6 -55 8 -201 95
-94 55 -173 98 -177 95 -3 -4 -8 -74 -11 -157 -5 -142 -6 -151 -29 -169 -13
-10 -33 -19 -45 -19 -11 0 -122 61 -246 135 -155 92 -227 130 -232 122 -4 -7
-8 -76 -8 -154 0 -134 -1 -143 -23 -169 -16 -18 -34 -27 -53 -27 -21 0 -218
113 -677 387 l-647 386 -227 -2 -228 -3 -52 -74 -53 -74 35 -31 35 -31 -36
-70 c-58 -113 -134 -235 -188 -303 -108 -135 -198 -170 -309 -119 l-55 25 -6
-46 c-3 -24 -6 -61 -6 -80 l0 -35 -142 6 c-79 4 -182 13 -230 22 -93 16 -212
56 -238 80 -14 13 -20 8 -52 -48 -20 -34 -44 -77 -53 -96 -14 -28 -19 -31 -26
-19 -12 22 -79 222 -75 225 2 2 19 -4 39 -12 96 -40 584 8 728 71 38 16 59 48
59 87 0 46 -50 129 -118 195 -135 133 -150 213 -80 415 l42 122 -1 176 c-1
158 -3 182 -23 225 -21 49 -60 98 -92 115 -40 22 -114 28 -179 15 -56 -12 -69
-19 -106 -61 -24 -26 -51 -69 -60 -96 l-18 -50 -5 174 -5 174 -165 -95z m-270
-598 c0 -9 -60 -94 -99 -141 l-35 -43 -116 0 -115 1 55 49 c30 27 80 63 111
80 66 35 199 71 199 54z m-1821 -345 c86 -50 178 -105 205 -122 27 -17 172
-103 322 -192 150 -88 274 -164 275 -170 1 -5 -250 -159 -557 -341 l-559 -330
-3 -647 c-1 -356 -4 -647 -6 -647 -3 0 -229 128 -504 285 l-499 285 -7 648 -7
647 22 15 c44 29 1144 658 1153 659 5 1 80 -40 165 -90z m6584 -797 c27 -14
69 -48 93 -75 44 -49 107 -166 119 -220 5 -26 4 -28 -21 -25 -23 3 -29 11 -41
53 -37 125 -145 225 -244 225 -35 0 -47 -6 -75 -35 -18 -20 -36 -51 -40 -71
-7 -38 -1 -127 11 -156 6 -14 2 -18 -18 -18 -33 0 -50 48 -51 145 -1 179 118
258 267 177z m-12 -169 c17 -15 28 -20 31 -13 3 9 10 9 31 -1 25 -11 27 -16
27 -76 0 -60 -1 -63 -25 -63 -20 0 -26 7 -35 40 -10 38 -41 70 -67 70 -25 0
-43 -44 -34 -78 9 -31 8 -32 -19 -32 -34 0 -40 14 -40 86 0 46 4 59 26 80 30
31 64 27 105 -13z"/>
<path d="M1995 5550 c-191 -16 -369 -112 -431 -232 -27 -52 -23 -136 9 -191
72 -122 237 -190 462 -190 187 0 342 52 437 146 39 40 78 111 66 121 -1 2 -28
6 -58 10 l-55 7 -20 -43 c-64 -133 -335 -204 -534 -139 -164 54 -234 156 -182
264 26 54 97 106 186 138 89 32 241 37 322 11 125 -39 186 -93 149 -130 -32
-33 -84 -20 -195 46 -58 34 -109 62 -113 62 -20 0 -88 -54 -77 -60 6 -4 -6
-11 -27 -15 -120 -22 -175 -123 -105 -193 114 -113 366 -99 426 24 18 38 24
42 66 46 91 9 163 67 161 129 -2 84 -175 178 -352 191 -30 2 -91 1 -135 -2z
m98 -263 c43 -19 61 -41 53 -71 -15 -60 -170 -60 -204 0 -33 58 68 105 151 71z"/>
<path d="M3580 6454 c36 -96 50 -153 64 -259 l12 -90 23 100 c13 55 39 133 57
172 18 41 28 75 23 79 -5 3 -53 20 -107 37 l-98 32 26 -71z"/>
<path d="M5282 5913 c2 -5 36 -72 75 -151 l70 -143 62 95 c56 88 61 101 61
151 l0 55 -136 0 c-75 0 -134 -3 -132 -7z"/>
</g>
</svg>
